<svg width="181" height="38" viewBox="0 0 181 38" fill="none" xmlns="http://www.w3.org/2000/svg">
<g clip-path="url(#clip0_109_12)">
<path d="M110.4 21.9H107.1V37.7H110.4V21.9ZM92.9999 21.9H89.5999V37.7H92.9999V31.2H99.5999V37.7H102.9V21.9H101.3C100.4 21.9 99.5999 22.7 99.5999 23.6V28.1H92.9999V21.9ZM68.6999 21.9H65.3999V37.7H68.6999V21.9ZM55.7999 25C58.0999 25 59.1999 25.7 59.1999 27.3C59.1999 28.9 58.0999 29.6 55.7999 29.6H53.2999V25H55.7999ZM56.2999 21.9H49.8999V37.7H53.2999V32.7H56.2999C58.0999 32.7 59.5999 32.2 60.7999 31.2C61.8999 30.2 62.4999 28.9 62.4999 27.2C62.4999 25.6 61.8999 24.3 60.7999 23.3C59.6999 22.4 58.1999 21.9 56.2999 21.9ZM59.4999 11.1C59.4999 12.4 58.4999 12.9 56.6999 12.9H53.2999V9.40002H56.6999C58.5999 9.40002 59.4999 10 59.4999 11.1ZM59.0999 5.00002C59.0999 6.10002 58.1999 6.60002 56.4999 6.60002H53.2999V3.30002H56.3999C58.2999 3.30002 59.0999 3.80002 59.0999 5.00002ZM60.8999 7.80002C61.9999 7.00002 62.4999 5.90002 62.4999 4.60002C62.4999 1.80002 60.3999 0.200024 56.9999 0.200024H49.8999V16H57.3999C58.9999 16 60.3999 15.6 61.2999 14.7C62.2999 13.8 62.7999 12.7 62.7999 11.3C62.8999 10 62.1999 8.80002 60.8999 7.80002ZM73.8999 10H69.9999L71.9999 4.80002L73.8999 10ZM76.2999 16H79.7999L73.9999 1.30002C73.6999 0.600024 73.0999 0.200024 72.3999 0.200024H70.3999L64.1999 16H67.6999L68.8999 12.9H74.9999L76.2999 16ZM79.9999 21.7C77.5999 21.7 75.6999 22.4 74.0999 24C72.4999 25.5 71.6999 27.5 71.6999 29.9C71.6999 32.3 72.4999 34.3 74.0999 35.8C75.6999 37.3 77.6999 38 80.0999 38C82.7999 38 84.8999 37 86.4999 35L84.2999 32.6C83.1999 34.1 81.7999 34.8 79.9999 34.8C78.5999 34.8 77.4999 34.3 76.5999 33.4C75.6999 32.5 75.1999 31.3 75.1999 29.7C75.1999 28.2 75.6999 26.9 76.5999 26.1C77.4999 25.2 78.5999 24.7 79.8999 24.7C81.0999 24.7 82.1999 25.1 83.0999 25.8C83.7999 26.3 84.6999 26.2 85.2999 25.6L86.2999 24.5C84.6999 22.7 82.5999 21.7 79.9999 21.7ZM92.8999 16H95.8999V0.200024H92.5999V11L86.6999 1.10002C86.3999 0.600024 85.7999 0.300024 85.1999 0.300024H82.0999V16H85.4999V5.40002L91.3999 15.2C91.7999 15.7 92.2999 16 92.8999 16ZM103.9 11.8C103 10.9 102.5 9.70003 102.5 8.10003C102.5 6.60003 103 5.40002 103.9 4.50002C104.8 3.60002 105.9 3.10002 107.2 3.10002C108.4 3.10002 109.5 3.50002 110.4 4.20002C111.1 4.70002 112 4.60002 112.6 4.00002L113.6 2.90002C112 0.900024 109.9 -0.0999756 107.3 -0.0999756C104.9 -0.0999756 103 0.600024 101.4 2.20002C99.7999 3.70002 98.9999 5.70002 98.9999 8.20002C98.9999 10.6 99.7999 12.6 101.4 14.1C103 15.6 105 16.3 107.4 16.3C110.1 16.3 112.2 15.3 113.8 13.3L111.6 10.9C110.5 12.4 109.1 13.1 107.3 13.1C105.9 13.2 104.8 12.7 103.9 11.8ZM117.6 21.9H114.5V37.7H117.9V27.1L123.8 36.9C124.1 37.4 124.7 37.7 125.3 37.7H128.3V21.9H125V32.6L119.1 22.7C118.7 22.3 118.2 21.9 117.6 21.9ZM128.4 8.10003C128.4 9.50003 128 10.7 127.1 11.7C126.3 12.7 125.1 13.1 123.7 13.1C122.2 13.1 121.1 12.6 120.2 11.7C119.3 10.7 118.9 9.60003 118.9 8.10003C118.9 6.70003 119.3 5.50002 120.2 4.60002C121.1 3.60002 122.2 3.20002 123.7 3.20002C125.1 3.20002 126.2 3.70002 127.1 4.70002C127.9 5.60002 128.4 6.80003 128.4 8.10003ZM129.4 14C131 12.4 131.8 10.5 131.8 8.10003C131.8 5.80003 131 3.80002 129.4 2.30002C127.8 0.700024 125.9 2.44156e-05 123.6 2.44156e-05C121.3 2.44156e-05 119.4 0.800024 117.8 2.30002C116.2 3.80002 115.5 5.80003 115.5 8.10003C115.5 10.5 116.3 12.4 117.8 14C119.4 15.5 121.3 16.3 123.6 16.3C125.9 16.3 127.8 15.5 129.4 14ZM136.2 33.5C135.3 32.6 134.8 31.4 134.8 29.8C134.8 28.3 135.3 27 136.2 26.2C137.1 25.3 138.2 24.8 139.5 24.8C140.7 24.8 141.8 25.2 142.7 25.9C143.4 26.4 144.3 26.3 144.9 25.7L145.9 24.6C144.3 22.6 142.2 21.6 139.6 21.6C137.2 21.6 135.3 22.3 133.7 23.9C132.1 25.4 131.3 27.4 131.3 29.8C131.3 32.2 132.1 34.2 133.7 35.7C135.3 37.2 137.3 37.9 139.7 37.9C142.4 37.9 144.5 36.9 146.1 34.9L143.9 32.5C142.8 34 141.4 34.7 139.6 34.7C138.2 34.9 137.1 34.4 136.2 33.5ZM159.2 37.8H162.5V21.9H160.9C160 21.9 159.2 22.7 159.2 23.6V28.1H152.6V21.9H149.2V37.7H152.6V31.2H159.2V37.8ZM174.9 31.7H171L173 26.5L174.9 31.7ZM180.8 37.8L175 23C174.7 22.3 174.1 21.9 173.4 21.9H171.4L165.2 37.7H168.7L169.9 34.6H176L177.3 37.7H180.8V37.8Z" fill="#0F265C"/>
<path d="M23.6 0.200012H0V25.1C0 32 5.6 37.7 12.6 37.7H37.5V0.200012H23.6Z" fill="#FFDD00"/>
<path d="M31.3 19H25.6V12.1H18.8V6.5H31.3V19Z" fill="#0F265C"/>
</g>
<defs>
<clipPath id="clip0_109_12">
<rect width="180.8" height="38" fill="white"/>
</clipPath>
</defs>
</svg>
