<svg width="3" height="18" viewBox="0 0 3 18" fill="none" xmlns="http://www.w3.org/2000/svg">
<path d="M0.166667 18H2.83333C2.925 18 3 17.325 3 16.5C3 15.675 2.925 15 2.83333 15H0.166667C0.075 15 0 15.675 0 16.5C0 17.325 0.075 18 0.166667 18ZM0.166667 10.5H2.83333C2.925 10.5 3 9.825 3 9C3 8.175 2.925 7.5 2.83333 7.5H0.166667C0.075 7.5 0 8.175 0 9C0 9.825 0.075 10.5 0.166667 10.5ZM0 1.5C0 2.325 0.075 3 0.166667 3H2.83333C2.925 3 3 2.325 3 1.5C3 0.675 2.925 0 2.83333 0H0.166667C0.075 0 0 0.675 0 1.5Z" fill="#373737"/>
</svg>
