<svg width="20" height="20" viewBox="0 0 30 30" fill="none" xmlns="http://www.w3.org/2000/svg">
<circle cx="15" cy="15" r="15" fill="#C0C7D9"/>
<path d="M11.2528 10.2727H13.0767V16.358C13.0767 16.9205 12.9503 17.4091 12.6974 17.8239C12.4474 18.2386 12.0994 18.5582 11.6534 18.7827C11.2074 19.0071 10.6889 19.1193 10.098 19.1193C9.57244 19.1193 9.09517 19.027 8.66619 18.8423C8.24006 18.6548 7.90199 18.3707 7.65199 17.9901C7.40199 17.6065 7.27841 17.125 7.28125 16.5455H9.1179C9.12358 16.7756 9.17045 16.973 9.25852 17.1378C9.34943 17.2997 9.47301 17.4247 9.62926 17.5128C9.78835 17.598 9.97585 17.6406 10.1918 17.6406C10.419 17.6406 10.6108 17.5923 10.767 17.4957C10.9261 17.3963 11.0469 17.2514 11.1293 17.0611C11.2116 16.8707 11.2528 16.6364 11.2528 16.358V10.2727ZM22.3026 13.3281H20.4361C20.402 13.0866 20.3324 12.8722 20.2273 12.6847C20.1222 12.4943 19.9872 12.3324 19.8224 12.1989C19.6577 12.0653 19.4673 11.9631 19.2514 11.892C19.0384 11.821 18.8068 11.7855 18.5568 11.7855C18.1051 11.7855 17.7116 11.8977 17.3764 12.1222C17.0412 12.3437 16.7813 12.6676 16.5966 13.0938C16.4119 13.517 16.3196 14.0312 16.3196 14.6364C16.3196 15.2585 16.4119 15.7812 16.5966 16.2045C16.7841 16.6278 17.0455 16.9474 17.3807 17.1634C17.7159 17.3793 18.1037 17.4872 18.544 17.4872C18.7912 17.4872 19.0199 17.4545 19.2301 17.3892C19.4432 17.3239 19.6321 17.2287 19.7969 17.1037C19.9616 16.9759 20.098 16.821 20.206 16.6392C20.3168 16.4574 20.3935 16.25 20.4361 16.017L22.3026 16.0256C22.2543 16.4261 22.1335 16.8125 21.9403 17.1847C21.75 17.554 21.4929 17.8849 21.169 18.1776C20.848 18.4673 20.4645 18.6974 20.0185 18.8679C19.5753 19.0355 19.0739 19.1193 18.5142 19.1193C17.7358 19.1193 17.0398 18.9432 16.4261 18.5909C15.8153 18.2386 15.3324 17.7287 14.9773 17.0611C14.625 16.3935 14.4489 15.5852 14.4489 14.6364C14.4489 13.6847 14.6278 12.875 14.9858 12.2074C15.3438 11.5398 15.8295 11.0312 16.4432 10.6818C17.0568 10.3295 17.7472 10.1534 18.5142 10.1534C19.0199 10.1534 19.4886 10.2244 19.9205 10.3665C20.3551 10.5085 20.7401 10.7159 21.0753 10.9886C21.4105 11.2585 21.6832 11.5895 21.8935 11.9815C22.1065 12.3736 22.2429 12.8224 22.3026 13.3281Z" fill="white"/>
</svg>

